<?xml version="1.0" standalone="no"?><!DOCTYPE svg PUBLIC "-//W3C//DTD SVG 1.1//EN" "http://www.w3.org/Graphics/SVG/1.1/DTD/svg11.dtd"><svg class="icon" width="200px" height="200.00px" viewBox="0 0 1024 1024" version="1.1" xmlns="http://www.w3.org/2000/svg"><path fill="#1296db" d="M772.0768 388.928A6.3872 6.3872 0 0 0 774.4 384V166.4a6.4 6.4 0 0 0-6.4-6.4h-89.6a6.4 6.4 0 0 0-6.4 6.4v217.6c0 1.984 0.9024 3.7568 2.3232 4.928 0.4096-0.576 0.8704-1.1328 1.3888-1.6576l38.528-38.8992a12.5824 12.5824 0 0 1 17.92 0l38.528 38.8992c0.5184 0.5248 0.9792 1.0752 1.3888 1.664z m75.0464 302.3232A153.3504 153.3504 0 0 0 838.4 742.4c0 17.9328 3.072 35.1488 8.7232 51.1488-0.768 0.032-1.5424 0.0512-2.3232 0.0512H288a51.2 51.2 0 1 1 0-102.4h556.8c0.7808 0 1.5552 0.0192 2.3232 0.0512zM851.2 665.6H268.8a51.2 51.2 0 0 0-51.2 51.2v51.2a51.2 51.2 0 0 0 51.2 51.2h578.6752a51.2192 51.2192 0 0 1-47.4752 32H236.8a51.2 51.2 0 0 1-51.2-51.2V198.4a51.2 51.2 0 0 1 51.2-51.2h563.2a51.2 51.2 0 0 1 51.2 51.2v467.2z"  /></svg>