<?xml version="1.0" standalone="no"?><!DOCTYPE svg PUBLIC "-//W3C//DTD SVG 1.1//EN" "http://www.w3.org/Graphics/SVG/1.1/DTD/svg11.dtd"><svg class="icon" width="200px" height="200.00px" viewBox="0 0 1024 1024" version="1.1" xmlns="http://www.w3.org/2000/svg"><path fill="#000000" d="M682.666667 227.555556V56.888889h56.888889v170.666667h-56.888889zM227.555556 227.555556V56.888889h56.888888v170.666667H227.555556zM56.888889 341.333333h853.333333v56.888889H56.888889zM739.555556 568.888889h56.888888v170.666667h-56.888888z"  /><path fill="#000000" d="M56.888889 170.666667h56.888889v682.666666H56.888889zM853.333333 170.666667h56.888889v170.666666h-56.888889zM739.555556 682.666667h170.666666v56.888889h-170.666666zM56.888889 113.777778h853.333333v56.888889H56.888889z"  /><path fill="#000000" d="M56.888889 796.444444h398.222222v56.888889H56.888889zM227.555556 455.111111h113.777777v113.777778H227.555556zM398.222222 455.111111h113.777778v113.777778H398.222222zM227.555556 625.777778h113.777777v113.777778H227.555556z"  /><path fill="#000000" d="M768 967.111111C625.777778 967.111111 512 853.333333 512 711.111111S625.777778 455.111111 768 455.111111s256 113.777778 256 256-113.777778 256-256 256z m0-56.888889c108.088889 0 199.111111-91.022222 199.111111-199.111111S876.088889 512 768 512 568.888889 603.022222 568.888889 711.111111s91.022222 199.111111 199.111111 199.111111z"  /></svg>