<?xml version="1.0" standalone="no"?><!DOCTYPE svg PUBLIC "-//W3C//DTD SVG 1.1//EN" "http://www.w3.org/Graphics/SVG/1.1/DTD/svg11.dtd"><svg class="icon" width="200px" height="111.97px" viewBox="0 0 1829 1024" version="1.1" xmlns="http://www.w3.org/2000/svg"><path fill="#000000" d="M914.297945 0C314.456393 0 0 441.928431 0 512.019026c0 70.052544 314.456393 511.980974 914.297945 511.980974 599.8035 0 914.297945-441.928431 914.297945-511.980974C1828.633942 441.928431 1514.101446 0 914.297945 0zM914.297945 905.888596c-224.46494 0-406.388466-176.329977-406.388466-393.86957 0-217.539593 181.923526-393.86957 406.388466-393.86957 224.426889 0 406.388466 176.291925 406.388466 393.86957C1320.686411 729.558619 1138.762885 905.888596 914.297945 905.888596zM914.297945 512.019026c-37.252276-40.867155 60.653859-196.953811 0-196.953811-112.213444 0-203.194233 88.20304-203.194233 196.953811s90.980789 196.915759 203.194233 196.915759c112.175393 0 203.194233-88.164988 203.194233-196.915759C1117.492178 462.057597 945.918621 546.759912 914.297945 512.019026z" /></svg>