<?xml version="1.0" standalone="no"?><!DOCTYPE svg PUBLIC "-//W3C//DTD SVG 1.1//EN" "http://www.w3.org/Graphics/SVG/1.1/DTD/svg11.dtd"><svg class="icon" width="200px" height="200.00px" viewBox="0 0 1024 1024" version="1.1" xmlns="http://www.w3.org/2000/svg"><path d="M898.603 558.546c0 222.832-179.086 403.472-400.001 403.472-220.914 0-399.999-180.64-399.999-403.472 0-103.306 25.289-173.912 62.068-238.837 31.318-55.282 75.865-102.026 117.244-122.896 53.459-26.964 49.59 102.878 101.146 64.925 85.061-62.605-10.998-237.498 64.367-220.284 121.842 27.824 161.411 155.308 190.807 169.27 62.141 29.515 49.195-121.788 151.724 6.958 112.644 141.446 112.644 253.297 112.644 340.864z" fill="#FFA820" /><path d="M504.192 66.484c-17.64-10.943-37.729-19.769-60.763-25.029-22.463-5.131-29.696 6.807-31.036 27.75a424.767 424.767 0 0 1 58.451-4.027 425.944 425.944 0 0 1 33.348 1.306zM885.176 411.016c4.399 24.399 6.699 49.527 6.699 75.193 0 232.529-188.502 421.031-421.031 421.031-126.389 0-239.765-55.695-316.94-143.876C223.49 882.26 351.812 962.018 498.603 962.018c220.915 0 400.001-180.64 400.001-403.472-0.001-43.085-0.011-92.054-13.428-147.53z" fill="#FEAC33" /><path d="M564.963 120.684c-16.372-19.589-36.192-38.952-60.771-54.201a426.91 426.91 0 0 0-33.349-1.306 424.767 424.767 0 0 0-58.451 4.027c-0.651 10.178 0.089 22.482 1.15 35.989a367.335 367.335 0 0 1 39.374-2.116c39.1 0.001 76.755 6.178 112.047 17.607zM470.843 907.24c232.529 0 421.031-188.502 421.031-421.031 0-25.666-2.3-50.794-6.699-75.193-13.852-57.273-41.996-121.482-99.216-193.333-60.507-75.98-80.797-54.424-100.038-30.059 79.662 66.65 130.334 166.802 130.334 278.793 0 200.667-162.672 363.339-363.339 363.339-172.726 0-317.297-120.527-354.21-282.064a615.892 615.892 0 0 0-0.103 10.854c0 74.766 20.162 144.781 55.3 204.818 77.175 88.181 190.551 143.876 316.94 143.876z" fill="#FEB133" /><path d="M452.917 829.756c200.667 0 363.339-162.673 363.339-363.339 0-111.991-50.672-212.143-130.334-278.793-13.362 16.921-26.218 35.198-51.686 23.101-16.096-7.645-35.243-49.323-69.273-90.041-35.292-11.429-72.948-17.606-112.046-17.606-13.305 0-26.44 0.722-39.374 2.116 0.9 11.448 2.028 23.759 2.736 36.371a310.176 310.176 0 0 1 18.712-0.587c168.804 0 305.647 136.843 305.647 305.647S603.795 752.272 434.99 752.272 129.343 615.429 129.343 446.625c0-34.423 5.695-67.515 16.186-98.39-27.219 55.067-45.366 116.582-46.823 199.457 36.913 161.537 181.485 282.064 354.211 282.064z" fill="#FEB633" /><path d="M434.99 752.272c168.804 0 305.647-136.843 305.647-305.647S603.795 140.978 434.99 140.978c-6.286 0-12.521 0.213-18.712 0.587 0.692 12.329 0.979 24.944 0.255 37.32 0.177 0 0.353-0.007 0.531-0.007 136.942 0 247.955 111.013 247.955 247.955S554.006 674.788 417.064 674.788 169.109 563.775 169.109 426.833c0-98.906 57.916-184.276 141.678-224.075-8.276-9.108-18.502-13.194-32.873-5.946-41.379 20.87-85.925 67.614-117.244 122.896a572.397 572.397 0 0 0-15.142 28.526c-10.492 30.875-16.186 63.967-16.186 98.39 0.001 168.805 136.844 305.648 305.648 305.648z" fill="#FFBC34" /><path d="M169.109 426.833c0 136.942 111.013 247.955 247.955 247.955s247.955-111.013 247.955-247.955-111.013-247.955-247.955-247.955c-0.178 0-0.354 0.006-0.531 0.007-0.774 13.224-2.706 26.174-6.536 38.209 100.025 5.63 179.404 88.514 179.404 189.948 0 105.079-85.184 190.263-190.263 190.263s-190.263-85.184-190.263-190.263c0-79.854 49.201-148.207 118.937-176.428-5.176-10.35-10.492-20.667-17.024-27.855-83.763 39.799-141.679 125.168-141.679 224.074z" fill="#FFC134" /><path d="M208.875 407.042c0 105.079 85.184 190.263 190.263 190.263s190.263-85.184 190.263-190.263c0-101.434-79.378-184.318-179.404-189.948-4.521 14.204-11.692 27.13-22.727 37.729 70.404 3.168 126.512 61.242 126.512 132.427 0 73.217-59.354 132.571-132.571 132.571s-132.57-59.354-132.57-132.571c0-60.623 40.691-111.741 96.251-127.533-6.369-7.346-11.648-18.241-17.08-29.102-69.736 28.22-118.937 96.572-118.937 176.427z" fill="#FFC634" /><path d="M248.641 387.25c0 73.217 59.354 132.571 132.571 132.571s132.571-59.354 132.571-132.571c0-71.186-56.108-129.259-126.512-132.427a82.044 82.044 0 0 1-8.209 6.916c-15.28 11.248-25.692 7.757-34.17-2.022-55.56 15.792-96.251 66.91-96.251 127.533z" fill="#FFCB34" /><path d="M433.988 58.269c1.472 0 3.3 0.247 5.433 0.734 34.007 7.766 63.969 24.586 91.597 51.421 24.109 23.418 41.979 50.187 56.338 71.696 14.905 22.327 25.674 38.459 39.158 44.863 7.9 3.752 15.703 5.655 23.194 5.655 23.735 0 37.588-17.629 48.718-31.794 8.491-10.806 14.479-17.889 20.12-17.889 5.036 0 20.313 4.477 53.334 45.941 108.724 136.524 108.724 243.607 108.724 329.65 0 52.066-10.105 102.563-30.034 150.089-19.248 45.904-46.806 87.131-81.906 122.536-35.09 35.394-75.943 63.18-121.425 82.584-47.069 20.081-97.077 30.263-148.635 30.263-51.558 0-101.566-10.182-148.634-30.263-45.482-19.404-86.335-47.19-121.425-82.584-35.1-35.405-62.658-76.632-81.906-122.536-19.929-47.526-30.033-98.023-30.033-150.089 0-47.267 5.418-89.438 16.565-128.921 9.539-33.79 23.255-65.898 43.165-101.043 29.537-52.138 71.567-96.471 109.689-115.697 3.086-1.557 4.912-1.789 5.726-1.789 1.883 0 4.322 1.874 7.247 5.57 4.709 5.949 9.244 15.034 13.63 23.82 10.288 20.611 23.092 46.261 48.98 46.261 9.189 0 18.653-3.537 28.127-10.511 52.735-38.813 46.82-110.782 42.501-163.331-1.206-14.67-2.344-28.525-2.023-39.257 0.316-10.531 1.947-14.27 2.546-15.299 0.253-0.041 0.655-0.08 1.229-0.08m0-18c-57.362 0 26.173 161.78-54.927 221.47-6.665 4.906-12.401 7.008-17.457 7.008-30.326 0-36.086-75.651-69.857-75.651-4.152 0-8.736 1.147-13.832 3.717-41.379 20.87-85.925 67.614-117.244 122.896-36.779 64.925-62.068 135.531-62.068 238.837 0 222.832 179.086 403.472 399.999 403.472 220.915 0 400.001-180.64 400.001-403.472 0-87.567 0-199.418-112.644-340.863-31.565-39.636-52.182-52.729-67.418-52.728-29.677 0.004-38.921 49.683-68.835 49.683-4.613 0-9.725-1.185-15.471-3.914-29.397-13.962-68.966-141.445-190.807-169.27-3.509-0.801-6.638-1.185-9.44-1.185z" fill="#FFA820" /><path d="M698.603 563.071c0 109.343-89.543 197.98-200 197.98-110.456 0-199.999-88.637-199.999-197.98 0-50.692 12.644-85.338 31.033-117.195 15.659-27.129 37.548-50.892 58.621-60.304 14.017-6.263 24.795 50.48 50.576 31.859 42.527-30.72 35.666-133.626 59.769-125.421 31.812 10.826 53.118 93.536 67.819 100.388 31.07 14.483 24.593-59.762 75.859 3.412 56.322 69.409 56.322 124.292 56.322 167.261z" fill="#FFE3B4" /><path d="M199.992 397.119c-2.736 0-5.514-0.626-8.122-1.947-8.868-4.493-12.414-15.325-7.921-24.192 33.852-66.81 75.685-108.16 77.449-109.888 7.103-6.955 18.5-6.835 25.455 0.267 6.953 7.101 6.836 18.491-0.259 25.447-0.682 0.673-39.62 39.438-70.531 100.445-3.172 6.26-9.502 9.868-16.071 9.868zM173.377 463.228c-1.949 0-3.93-0.319-5.875-0.99-9.397-3.244-14.385-13.492-11.141-22.889l3.671-10.633c3.245-9.397 13.494-14.383 22.889-11.141 9.397 3.244 14.385 13.492 11.141 22.889l-3.671 10.633c-2.573 7.452-9.55 12.131-17.014 12.131z" fill="#FFFFFF" /></svg>