<?xml version="1.0" standalone="no"?><!DOCTYPE svg PUBLIC "-//W3C//DTD SVG 1.1//EN" "http://www.w3.org/Graphics/SVG/1.1/DTD/svg11.dtd"><svg class="icon" width="200px" height="168.84px" viewBox="0 0 1213 1024" version="1.1" xmlns="http://www.w3.org/2000/svg"><path d="M180.104533 132.39596l995.555556 0 0 805.753535-995.555556 0 0-805.753535Z" fill="#FDD545" /><path d="M979.652008 220.832323h-106.537374a56.371717 56.371717 0 0 0-51.717171 58.957576v119.983838a56.371717 56.371717 0 0 0 51.717171 59.474748h106.537374a56.371717 56.371717 0 0 0 51.717172-59.474748V279.789899a56.371717 56.371717 0 0 0-51.717172-58.957576z" fill="#333333" /><path d="M1032.403523 1024H181.138877A189.80202 189.80202 0 0 1 0.128776 827.474747V196.525253A189.80202 189.80202 0 0 1 181.138877 0h851.264646a189.80202 189.80202 0 0 1 181.010101 196.525253V827.474747a189.80202 189.80202 0 0 1-181.010101 196.525253zM181.138877 77.575758a112.226263 112.226263 0 0 0-103.434344 118.949495V827.474747a112.226263 112.226263 0 0 0 103.434344 118.949495h851.264646a112.226263 112.226263 0 0 0 103.434344-118.949495V196.525253a112.226263 112.226263 0 0 0-103.434344-118.949495z" fill="#333333" /><path d="M630.561099 621.640404H203.894432a38.787879 38.787879 0 0 1 0-77.575758h426.666667a38.787879 38.787879 0 0 1 0 77.575758zM630.561099 813.511111H203.894432a38.787879 38.787879 0 0 1 0-77.575757h426.666667a38.787879 38.787879 0 0 1 0 77.575757z" fill="#333333" /></svg>